<svg width="157" height="158" viewBox="0 0 157 158" fill="none" xmlns="http://www.w3.org/2000/svg">
<path fill-rule="evenodd" clip-rule="evenodd" d="M3.32275 79.1704C3.32275 37.6552 37.0706 3.99973 78.7015 3.99973C120.332 3.99973 154.08 37.6552 154.08 79.1704C154.08 120.686 120.332 154.34 78.7015 154.34C37.0706 154.34 3.32275 120.686 3.32275 79.1704Z" fill="white"/>
<mask id="mask0_46_57" style="mask-type:alpha" maskUnits="userSpaceOnUse" x="0" y="1" width="157" height="157">
<path d="M0.442627 1.12766H156.961V157.211H0.442627V1.12766Z" fill="white"/>
</mask>
<g mask="url(#mask0_46_57)">
<path fill-rule="evenodd" clip-rule="evenodd" d="M78.7021 6.87311C38.7261 6.87311 6.20409 39.3062 6.20409 79.171C6.20409 119.036 38.7261 151.468 78.7021 151.468C118.677 151.468 151.2 119.036 151.2 79.171C151.2 39.3062 118.677 6.87311 78.7021 6.87311ZM78.7021 157.213C35.5487 157.213 0.442627 122.203 0.442627 79.171C0.442627 36.1376 35.5487 1.12766 78.7021 1.12766C121.854 1.12766 156.962 36.1376 156.962 79.171C156.962 122.203 121.854 157.213 78.7021 157.213Z" fill="#46211F"/>
</g>
<path fill-rule="evenodd" clip-rule="evenodd" d="M21.9509 108.568L22.7128 108.717L22.6351 109.113L25.7434 107.487C25.7909 107.463 25.8413 107.437 25.8946 107.408C25.9493 107.381 26.0012 107.35 26.0502 107.316C26.1928 107.226 26.2907 107.115 26.3426 106.982C26.3944 106.848 26.3742 106.696 26.2849 106.524C26.187 106.34 26.0559 106.241 25.8932 106.223C25.7275 106.208 25.5633 106.235 25.3977 106.307C25.3113 106.344 25.2306 106.383 25.1557 106.422C25.0822 106.46 25.0088 106.498 24.9382 106.535L22.1136 108.013C21.9523 108.096 21.827 108.213 21.7391 108.361C21.6498 108.509 21.657 108.678 21.7593 108.874C21.7924 108.938 21.8256 108.986 21.8558 109.014L21.9509 108.568ZM20.8605 109.353C20.5868 108.832 20.5206 108.382 20.6589 108.005C20.7971 107.625 21.1169 107.306 21.6167 107.045L24.7423 105.41C24.9872 105.284 25.2248 105.195 25.4567 105.145C25.6886 105.096 25.9076 105.092 26.1164 105.135C26.3238 105.176 26.5197 105.273 26.7012 105.423C26.8827 105.573 27.044 105.782 27.1837 106.047C27.3335 106.331 27.4214 106.59 27.4473 106.821C27.4747 107.052 27.4473 107.263 27.3652 107.453C27.2817 107.644 27.1535 107.816 26.9778 107.973C26.8006 108.129 26.5845 108.275 26.3296 108.408L23.2933 109.995C22.9649 110.166 22.6682 110.265 22.4003 110.291L22.2577 111.037L21.4655 110.871L21.6052 110.163C21.4525 110.102 21.3142 109.997 21.1918 109.853C21.0708 109.709 20.9613 109.543 20.8605 109.353Z" fill="#46211F"/>
<path fill-rule="evenodd" clip-rule="evenodd" d="M30.4977 111.747L26.1017 114.543C25.586 114.87 25.1222 115.004 24.7131 114.942C24.3041 114.882 23.9411 114.604 23.6242 114.107C23.3074 113.612 23.2008 113.169 23.3073 112.78C23.4139 112.392 23.7049 112.046 24.1817 111.743L28.6713 108.889L29.2561 109.805L24.7506 112.671C24.5965 112.767 24.4827 112.894 24.4107 113.047C24.3372 113.201 24.3617 113.37 24.4798 113.557C24.5994 113.744 24.7477 113.836 24.9263 113.833C25.1035 113.832 25.2835 113.774 25.465 113.658L29.9114 110.832L30.4977 111.747Z" fill="#46211F"/>
<path fill-rule="evenodd" clip-rule="evenodd" d="M30.9673 115.118C30.541 115.355 30.1132 115.589 29.6868 115.82C29.2576 116.052 28.8197 116.282 28.3704 116.511L28.9479 117.273L30.9976 115.158L30.9673 115.118ZM27.2382 119.118L28.2407 118.022L27.4615 116.995C27.2397 117.105 27.0179 117.215 26.796 117.327C26.5742 117.441 26.3553 117.554 26.1378 117.668L25.468 116.786C26.5469 116.266 27.6214 115.747 28.6916 115.234C29.7589 114.722 30.8348 114.205 31.9137 113.683L32.6454 114.646L27.9094 120L27.2382 119.118Z" fill="#46211F"/>
<path fill-rule="evenodd" clip-rule="evenodd" d="M29.0261 121.316L34.2791 116.675L35.0008 117.488L30.5111 121.455L31.8017 122.909L31.0383 123.581L29.0261 121.316Z" fill="#46211F"/>
<path fill-rule="evenodd" clip-rule="evenodd" d="M32.051 124.607L37.0304 119.675L37.7981 120.446L32.8187 125.377L32.051 124.607Z" fill="#46211F"/>
<path fill-rule="evenodd" clip-rule="evenodd" d="M39.603 123.515L35.6002 127.97L34.7893 127.245L38.7921 122.789L37.9509 122.038L38.6308 121.283L41.124 123.51L40.4442 124.266L39.603 123.515Z" fill="#46211F"/>
<path fill-rule="evenodd" clip-rule="evenodd" d="M41.6427 127.395L42.6625 126.617L43.8825 125.676L44.7957 126.374L41.2077 128.8L39.4389 131.095L38.5762 130.435L40.3449 128.138L41.7651 124.053L42.6769 124.751L42.0921 126.217L41.611 127.371L41.6427 127.395Z" fill="#46211F"/>
<path fill-rule="evenodd" clip-rule="evenodd" d="M48.0316 134.329C47.8703 134.601 47.7018 134.829 47.5232 135.017C47.3446 135.204 47.1516 135.339 46.9456 135.424C46.7382 135.509 46.5149 135.535 46.27 135.503C46.0252 135.473 45.7616 135.372 45.4778 135.204C45.2171 135.051 45.014 134.88 44.87 134.694C44.7245 134.509 44.6309 134.315 44.5877 134.111C44.543 133.909 44.5474 133.702 44.5978 133.491C44.6482 133.281 44.7346 133.074 44.8542 132.873L45.8984 133.244C45.776 133.476 45.7097 133.685 45.7011 133.87C45.691 134.055 45.7962 134.213 46.0137 134.341C46.1404 134.416 46.2556 134.452 46.3593 134.446C46.4631 134.44 46.5581 134.408 46.6417 134.35C46.7281 134.291 46.8059 134.213 46.8764 134.113C46.947 134.015 47.0176 133.907 47.0853 133.792C47.1703 133.647 47.2351 133.521 47.2754 133.413C47.3158 133.304 47.333 133.2 47.3244 133.103C47.3172 133.004 47.2841 132.903 47.225 132.797C47.166 132.693 47.0839 132.566 46.9758 132.416C46.7583 132.125 46.6013 131.862 46.4991 131.632C46.3982 131.401 46.3435 131.187 46.3363 130.99C46.3277 130.793 46.3565 130.608 46.4227 130.431C46.4861 130.256 46.5768 130.072 46.6892 129.882C46.8332 129.64 46.996 129.434 47.1732 129.266C47.3518 129.098 47.5462 128.978 47.7536 128.901C47.9639 128.827 48.1872 128.804 48.4234 128.834C48.6596 128.866 48.9088 128.957 49.1695 129.111C49.4533 129.281 49.6621 129.463 49.7946 129.663C49.9271 129.861 50.0064 130.063 50.0352 130.266C50.0625 130.469 50.051 130.668 49.9977 130.864C49.9444 131.057 49.8724 131.233 49.7802 131.388L48.7144 131.052C48.844 130.832 48.9131 130.632 48.9203 130.45C48.9275 130.267 48.8238 130.111 48.6049 129.982C48.4911 129.914 48.3859 129.884 48.2923 129.891C48.1987 129.898 48.1108 129.927 48.0259 129.979C47.9423 130.03 47.8674 130.095 47.8055 130.176C47.7421 130.255 47.6845 130.338 47.6341 130.425C47.5707 130.529 47.5232 130.622 47.4886 130.707C47.454 130.79 47.4439 130.885 47.4583 130.987C47.4713 131.088 47.5116 131.205 47.5822 131.34C47.6499 131.474 47.7579 131.635 47.9034 131.823C48.108 132.084 48.2549 132.321 48.3427 132.533C48.432 132.745 48.4738 132.945 48.4709 133.134C48.468 133.324 48.4277 133.514 48.3485 133.706C48.2707 133.897 48.1656 134.105 48.0316 134.329Z" fill="#46211F"/>
<path fill-rule="evenodd" clip-rule="evenodd" d="M51.4101 133.732L49.6298 137.398L48.6504 136.924L51.7083 130.626L52.5884 131.05L52.4414 133.291C52.4256 133.478 52.4112 133.662 52.3982 133.841C52.3853 134.021 52.3752 134.204 52.3651 134.396L52.2614 135.417C52.2729 135.423 52.2816 135.424 52.2859 135.423C52.2902 135.421 52.2988 135.424 52.3104 135.43L54.0863 131.773L55.0485 132.238L51.9906 138.535L51.1307 138.121L51.2776 135.891C51.305 135.526 51.3338 135.167 51.3597 134.814C51.3856 134.462 51.4145 134.105 51.4461 133.749L51.4101 133.732Z" fill="#46211F"/>
<path fill-rule="evenodd" clip-rule="evenodd" d="M59.508 134.007L57.6456 138.862C57.4281 139.432 57.1357 139.814 56.7713 140.008C56.4054 140.202 55.9474 140.195 55.3972 139.985C54.8455 139.774 54.4969 139.482 54.35 139.107C54.2045 138.731 54.2319 138.28 54.4336 137.756L56.3348 132.796L57.3517 133.184L55.4418 138.162C55.3784 138.33 55.3612 138.5 55.3957 138.665C55.4289 138.833 55.5484 138.955 55.7558 139.034C55.9632 139.113 56.1375 139.1 56.2801 138.991C56.4213 138.885 56.5307 138.731 56.6085 138.53L58.4911 133.619L59.508 134.007Z" fill="#46211F"/>
<path fill-rule="evenodd" clip-rule="evenodd" d="M62.6645 140.185C62.5766 140.487 62.47 140.751 62.3447 140.977C62.218 141.202 62.0667 141.38 61.8867 141.514C61.7081 141.647 61.4963 141.728 61.2515 141.758C61.008 141.789 60.7272 141.758 60.4103 141.666C60.1193 141.58 59.8802 141.466 59.693 141.323C59.5072 141.179 59.3675 141.014 59.2753 140.827C59.1817 140.642 59.1341 140.439 59.1312 140.224C59.1269 140.007 59.1586 139.786 59.2249 139.562L60.3282 139.662C60.2677 139.916 60.2562 140.136 60.2936 140.317C60.3311 140.498 60.4708 140.625 60.7142 140.696C60.8554 140.738 60.9749 140.742 61.0743 140.712C61.1737 140.681 61.2572 140.626 61.3249 140.548C61.3926 140.471 61.4488 140.375 61.492 140.261C61.5367 140.149 61.577 140.027 61.6144 139.899C61.662 139.737 61.6908 139.599 61.7037 139.484C61.7167 139.369 61.7066 139.264 61.6749 139.171C61.6432 139.078 61.5856 138.987 61.5021 138.901C61.4186 138.815 61.3062 138.711 61.1665 138.594C60.8827 138.364 60.6638 138.15 60.5097 137.952C60.3541 137.752 60.2475 137.558 60.1899 137.37C60.1323 137.183 60.115 136.995 60.1337 136.808C60.1539 136.623 60.1942 136.422 60.2562 136.209C60.3354 135.939 60.4405 135.701 60.5716 135.494C60.7012 135.287 60.8597 135.122 61.0441 134.995C61.227 134.872 61.4373 134.794 61.6749 134.766C61.9112 134.736 62.1747 134.763 62.4671 134.849C62.784 134.941 63.0318 135.067 63.2089 135.227C63.3875 135.388 63.5143 135.561 63.5921 135.751C63.6698 135.942 63.7073 136.137 63.7044 136.34C63.7015 136.542 63.6756 136.729 63.6252 136.903L62.5089 136.84C62.5809 136.596 62.5968 136.384 62.5593 136.205C62.5204 136.027 62.3793 135.902 62.1373 135.831C62.0091 135.794 61.8996 135.791 61.8118 135.821C61.7225 135.85 61.6447 135.902 61.5741 135.972C61.5064 136.043 61.4502 136.124 61.4099 136.216C61.3681 136.31 61.3336 136.405 61.3062 136.501C61.2716 136.616 61.2486 136.721 61.2371 136.811C61.2241 136.902 61.2371 136.993 61.276 137.088C61.3148 137.183 61.384 137.288 61.4834 137.401C61.5842 137.513 61.7282 137.643 61.9169 137.788C62.1791 137.99 62.3793 138.184 62.519 138.367C62.6573 138.55 62.7494 138.734 62.7941 138.918C62.8373 139.102 62.846 139.297 62.8171 139.501C62.7898 139.705 62.7394 139.934 62.6645 140.185Z" fill="#46211F"/>
<path fill-rule="evenodd" clip-rule="evenodd" d="M66.7563 140.484L66.8989 139.57L71.4822 140.278L71.3396 141.192L66.7563 140.484Z" fill="#46211F"/>
<path fill-rule="evenodd" clip-rule="evenodd" d="M77.1984 138.799C77.1192 139.28 77.0371 139.76 76.9521 140.237C76.8657 140.715 76.7735 141.201 76.6741 141.693L77.632 141.716L77.2488 138.801L77.1984 138.799ZM78.0151 144.2L77.7789 142.736L76.4883 142.705C76.435 142.944 76.3846 143.187 76.3342 143.43C76.2852 143.674 76.2377 143.915 76.1916 144.157L75.0825 144.129C75.3461 142.962 75.6097 141.803 75.8718 140.649C76.1354 139.496 76.399 138.334 76.6626 137.167L77.8725 137.198L79.1242 144.227L78.0151 144.2Z" fill="#46211F"/>
<path fill-rule="evenodd" clip-rule="evenodd" d="M81.9315 138.131L82.1995 144.107L81.112 144.156L80.8441 138.18L79.7163 138.23L79.6702 137.216L83.0147 137.065L83.0594 138.081L81.9315 138.131Z" fill="#46211F"/>
<path fill-rule="evenodd" clip-rule="evenodd" d="M88.4441 139.152L88.5767 137.878L88.7293 136.348L89.8658 136.166L89.1701 140.432L89.6296 143.291L88.5536 143.462L88.0956 140.603L86.0906 136.768L87.227 136.587L87.8939 138.017L88.4052 139.159L88.4441 139.152Z" fill="#46211F"/>
<path fill-rule="evenodd" clip-rule="evenodd" d="M93.4559 137.088C93.4113 136.898 93.3278 136.739 93.2096 136.61C93.0915 136.479 92.9187 136.441 92.6911 136.497C92.5658 136.526 92.4707 136.579 92.4074 136.654C92.3411 136.727 92.2979 136.811 92.2748 136.903C92.2532 136.994 92.2446 137.092 92.2532 137.197C92.2619 137.302 92.2763 137.397 92.2964 137.481L93.1275 140.903C93.1708 141.078 93.2529 141.225 93.3753 141.344C93.4977 141.463 93.6662 141.496 93.8823 141.444C94.0969 141.391 94.2338 141.281 94.2899 141.113C94.3447 140.943 94.3475 140.755 94.2971 140.547L93.4559 137.088ZM95.3414 140.232C95.4854 140.825 95.4609 141.305 95.2679 141.673C95.0735 142.04 94.6903 142.293 94.1171 142.431C93.5438 142.57 93.0915 142.526 92.7602 142.299C92.4304 142.072 92.1971 141.686 92.0645 141.138L91.2335 137.718C91.1686 137.451 91.1398 137.198 91.1485 136.963C91.1571 136.726 91.2061 136.513 91.2968 136.321C91.389 136.13 91.5302 135.965 91.7203 135.825C91.9104 135.687 92.1524 135.581 92.4448 135.511C92.7574 135.436 93.0296 135.413 93.2615 135.443C93.4934 135.473 93.6907 135.551 93.8564 135.677C94.0206 135.802 94.1589 135.969 94.2683 136.177C94.3763 136.385 94.4656 136.63 94.5333 136.91L95.3414 140.232Z" fill="#46211F"/>
<path fill-rule="evenodd" clip-rule="evenodd" d="M98.6231 133.748L100.261 138.683C100.454 139.262 100.47 139.742 100.31 140.123C100.151 140.503 99.7913 140.788 99.231 140.971C98.6707 141.157 98.2155 141.15 97.8641 140.951C97.5126 140.755 97.249 140.387 97.0704 139.853L95.3967 134.812L96.4309 134.472L98.1118 139.531C98.168 139.702 98.2616 139.842 98.3941 139.952C98.5252 140.059 98.6966 140.078 98.9069 140.009C99.1186 139.94 99.2439 139.818 99.2857 139.646C99.3275 139.473 99.3145 139.285 99.2468 139.081L97.589 134.09L98.6231 133.748Z" fill="#46211F"/>
<path fill-rule="evenodd" clip-rule="evenodd" d="M101.32 133.757L102.125 135.645L102.533 135.472C102.794 135.362 102.954 135.205 103.011 135.003C103.072 134.797 103.03 134.53 102.889 134.197C102.762 133.899 102.604 133.695 102.413 133.585C102.223 133.471 101.989 133.474 101.711 133.592L101.32 133.757ZM101.395 132.622C101.922 132.398 102.396 132.371 102.817 132.539C103.239 132.706 103.59 133.119 103.873 133.78C104.045 134.187 104.135 134.554 104.139 134.885C104.145 135.214 104.035 135.52 103.813 135.804L105.996 138.276L104.974 138.71L103.004 136.397L102.532 136.598L103.667 139.263L102.663 139.688L99.9202 133.247L101.395 132.622Z" fill="#46211F"/>
<path fill-rule="evenodd" clip-rule="evenodd" d="M109.383 130.638C109.253 130.417 109.111 130.269 108.954 130.193C108.795 130.117 108.598 130.147 108.36 130.286L107.96 130.519L110.467 134.811L110.868 134.577C111.1 134.443 111.225 134.29 111.239 134.116C111.255 133.943 111.196 133.741 111.059 133.508L109.383 130.638ZM108.009 129.315C108.367 129.107 108.687 129.005 108.968 129.008C109.25 129.011 109.518 129.136 109.772 129.386C109.96 129.562 110.165 129.837 110.387 130.209C110.607 130.581 110.865 131.018 111.16 131.522C111.45 132.02 111.699 132.451 111.902 132.813C112.107 133.175 112.233 133.481 112.287 133.731C112.376 134.136 112.338 134.472 112.171 134.739C112.007 135.006 111.769 135.23 111.463 135.407L110.038 136.234L106.506 130.187L108.009 129.315Z" fill="#46211F"/>
<path fill-rule="evenodd" clip-rule="evenodd" d="M113.413 127.867C113.301 127.708 113.167 127.589 113.01 127.51C112.853 127.432 112.678 127.459 112.484 127.593C112.379 127.666 112.31 127.749 112.276 127.841C112.243 127.936 112.233 128.028 112.245 128.121C112.258 128.215 112.287 128.31 112.333 128.404C112.377 128.499 112.426 128.583 112.475 128.654L114.493 131.54C114.598 131.689 114.728 131.797 114.885 131.863C115.042 131.929 115.212 131.899 115.393 131.773C115.575 131.648 115.661 131.494 115.653 131.317C115.643 131.141 115.578 130.964 115.454 130.787L113.413 127.867ZM116.312 130.117C116.662 130.616 116.815 131.073 116.768 131.487C116.721 131.898 116.455 132.273 115.971 132.609C115.487 132.945 115.051 133.067 114.659 132.975C114.268 132.883 113.911 132.607 113.589 132.146L111.571 129.258C111.414 129.032 111.296 128.808 111.216 128.585C111.139 128.361 111.107 128.144 111.121 127.933C111.139 127.722 111.209 127.518 111.337 127.319C111.464 127.12 111.65 126.936 111.898 126.764C112.163 126.58 112.408 126.461 112.634 126.405C112.86 126.35 113.073 126.35 113.273 126.408C113.472 126.465 113.661 126.572 113.839 126.725C114.016 126.88 114.188 127.076 114.352 127.313L116.312 130.117Z" fill="#46211F"/>
<path fill-rule="evenodd" clip-rule="evenodd" d="M117.254 124.899C117.13 124.75 116.986 124.642 116.824 124.576C116.661 124.511 116.488 124.552 116.307 124.702C116.207 124.783 116.147 124.87 116.121 124.967C116.095 125.061 116.092 125.155 116.111 125.247C116.131 125.339 116.167 125.431 116.22 125.521C116.275 125.613 116.328 125.692 116.384 125.758L118.628 128.473C118.744 128.614 118.883 128.71 119.045 128.764C119.207 128.818 119.373 128.773 119.545 128.632C119.716 128.491 119.789 128.333 119.766 128.158C119.742 127.982 119.663 127.811 119.526 127.644L117.254 124.899ZM120.328 126.907C120.717 127.378 120.904 127.821 120.891 128.236C120.878 128.651 120.644 129.044 120.188 129.419C119.733 129.794 119.308 129.951 118.911 129.89C118.513 129.83 118.136 129.583 117.777 129.148L115.53 126.433C115.356 126.222 115.221 126.008 115.124 125.791C115.028 125.576 114.979 125.362 114.977 125.149C114.976 124.938 115.03 124.728 115.14 124.52C115.251 124.313 115.422 124.112 115.654 123.921C115.903 123.717 116.138 123.578 116.36 123.504C116.58 123.431 116.793 123.415 116.998 123.456C117.201 123.497 117.397 123.588 117.586 123.727C117.776 123.868 117.962 124.049 118.146 124.27L120.328 126.907Z" fill="#46211F"/>
<path fill-rule="evenodd" clip-rule="evenodd" d="M119.635 121.836L121.07 123.305L121.388 122.995C121.59 122.799 121.682 122.596 121.663 122.384C121.644 122.173 121.509 121.939 121.255 121.679C121.029 121.448 120.808 121.314 120.59 121.28C120.371 121.244 120.155 121.33 119.938 121.541L119.635 121.836ZM119.291 120.751C119.701 120.353 120.132 120.157 120.586 120.159C121.039 120.162 121.518 120.421 122.02 120.934C122.33 121.253 122.547 121.561 122.671 121.867C122.797 122.172 122.805 122.496 122.702 122.841L125.634 124.358L124.841 125.131L122.164 123.689L121.796 124.046L123.822 126.119L123.043 126.877L118.144 121.866L119.291 120.751Z" fill="#46211F"/>
<path fill-rule="evenodd" clip-rule="evenodd" d="M127.486 119.297C127.724 119.504 127.92 119.712 128.071 119.92C128.223 120.128 128.323 120.341 128.368 120.561C128.412 120.778 128.398 121.003 128.323 121.237C128.248 121.47 128.101 121.711 127.884 121.96C127.685 122.187 127.48 122.356 127.27 122.462C127.063 122.572 126.852 122.628 126.643 122.633C126.436 122.639 126.233 122.599 126.034 122.511C125.835 122.422 125.648 122.302 125.471 122.147L126.028 121.19C126.234 121.352 126.427 121.456 126.609 121.497C126.789 121.54 126.963 121.466 127.13 121.276C127.227 121.167 127.281 121.059 127.296 120.957C127.31 120.855 127.296 120.756 127.254 120.661C127.211 120.568 127.146 120.477 127.063 120.388C126.978 120.302 126.884 120.215 126.783 120.126C126.656 120.016 126.543 119.93 126.445 119.871C126.344 119.811 126.244 119.776 126.146 119.765C126.05 119.756 125.942 119.769 125.828 119.808C125.714 119.847 125.573 119.906 125.408 119.982C125.079 120.143 124.793 120.25 124.548 120.307C124.3 120.364 124.08 120.378 123.885 120.351C123.691 120.324 123.511 120.263 123.349 120.166C123.188 120.07 123.024 119.949 122.855 119.802C122.644 119.617 122.469 119.422 122.338 119.216C122.204 119.012 122.119 118.8 122.083 118.58C122.047 118.362 122.066 118.139 122.139 117.912C122.213 117.687 122.347 117.458 122.548 117.231C122.764 116.983 122.983 116.812 123.204 116.718C123.424 116.625 123.637 116.583 123.843 116.592C124.049 116.602 124.244 116.651 124.425 116.737C124.608 116.826 124.767 116.93 124.903 117.047L124.378 118.03C124.185 117.863 123.999 117.758 123.822 117.718C123.642 117.678 123.47 117.753 123.303 117.942C123.215 118.043 123.166 118.139 123.158 118.232C123.146 118.326 123.159 118.418 123.195 118.51C123.23 118.602 123.282 118.688 123.348 118.762C123.416 118.839 123.488 118.91 123.562 118.976C123.653 119.055 123.738 119.122 123.815 119.169C123.892 119.219 123.983 119.246 124.084 119.251C124.188 119.255 124.311 119.236 124.455 119.193C124.601 119.152 124.78 119.074 124.991 118.966C125.285 118.813 125.546 118.712 125.771 118.663C125.997 118.616 126.201 118.61 126.388 118.648C126.573 118.685 126.753 118.76 126.929 118.87C127.103 118.982 127.289 119.124 127.486 119.297Z" fill="#46211F"/>
<path fill-rule="evenodd" clip-rule="evenodd" d="M126.485 114.05L131.29 117.631L130.639 118.501L125.833 114.919L125.157 115.822L124.342 115.215L126.345 112.54L127.161 113.148L126.485 114.05Z" fill="#46211F"/>
<path fill-rule="evenodd" clip-rule="evenodd" d="M132.913 115.347L127.002 111.573L128.682 108.958L129.54 109.505L128.447 111.207L130.06 112.237L131.012 110.755L131.886 111.313L130.936 112.794L132.643 113.885L133.734 112.184L134.593 112.73L132.913 115.347Z" fill="#46211F"/>
<path fill-rule="evenodd" clip-rule="evenodd" d="M130.708 107.423L132.708 108.492L132.889 108.155C133.048 107.858 133.074 107.61 132.965 107.403C132.857 107.197 132.634 107.004 132.296 106.823C131.992 106.66 131.722 106.587 131.489 106.601C131.254 106.617 131.057 106.774 130.9 107.068L130.708 107.423ZM130.03 106.537C130.334 105.969 130.706 105.632 131.143 105.527C131.581 105.424 132.129 105.547 132.787 105.899C133.076 106.053 133.327 106.221 133.534 106.4C133.743 106.58 133.897 106.779 133.995 107.001C134.093 107.22 134.135 107.462 134.116 107.722C134.099 107.982 134.004 108.272 133.833 108.591L133.624 108.981L135.996 110.248L135.482 111.206L129.297 107.9L130.03 106.537Z" fill="#46211F"/>
<path fill-rule="evenodd" clip-rule="evenodd" d="M32.9738 73.364C31.1963 71.3488 30.227 68.3411 30.0642 64.3422L36.2751 63.1227C36.373 65.6278 36.772 67.5367 37.4735 68.8538C38.1749 70.1695 39.2739 70.8288 40.7733 70.8288C41.8824 70.8288 42.7063 70.4956 43.2436 69.8291C43.7823 69.1627 44.0502 68.2606 44.0502 67.1216C44.0502 65.5617 43.7002 64.2445 43.0002 63.1716C42.2973 62.0986 41.1983 60.8964 39.6974 59.5634L34.7108 55.2227C33.1768 53.8568 32.0289 52.452 31.2612 51.0041C30.4963 49.5577 30.1117 47.7781 30.1117 45.6652C30.1117 42.5425 31.0249 40.1366 32.8513 38.4474C34.6763 36.7568 37.2041 35.9108 40.4305 35.9108C43.8212 35.9108 46.2525 36.8789 47.7188 38.8123C49.1851 40.7471 50.0335 43.3569 50.261 46.639L44.0502 47.712C43.9522 45.5991 43.667 43.9904 43.1946 42.8844C42.7207 41.7798 41.8018 41.2268 40.4305 41.2268C39.3229 41.2268 38.45 41.5687 37.8163 42.2509C37.1796 42.9332 36.8613 43.8281 36.8613 44.9326C36.8613 46.2009 37.122 47.2567 37.6434 48.1027C38.1648 48.9487 38.9815 49.8752 40.0892 50.8821L45.0282 55.2227C46.8863 56.8803 48.3382 58.6039 49.381 60.3922C50.4238 62.1805 50.9467 64.2776 50.9467 66.6835C50.9467 68.5694 50.5304 70.2428 49.6993 71.7065C48.8668 73.1701 47.7015 74.3149 46.2021 75.1451C44.7012 75.9739 42.9742 76.3876 41.0182 76.3876C37.4317 76.3876 34.7497 75.3807 32.9738 73.364Z" fill="#46211F"/>
<path fill-rule="evenodd" clip-rule="evenodd" d="M54.7109 36.3495H59.7479L69.3811 58.8788V36.3495H75.3471V75.8509H70.555L60.8728 52.2472V75.8509H54.7109V36.3495Z" fill="#46211F"/>
<path fill-rule="evenodd" clip-rule="evenodd" d="M84.9816 74.8269C83.3511 73.787 82.2104 72.3076 81.5593 70.3886C80.9068 68.471 80.5813 66.0335 80.5813 63.0746V36.3496H87.6218V63.9034C87.6218 66.18 87.8926 67.9353 88.4299 69.1705C88.9671 70.4058 90.0676 71.0235 91.7312 71.0235C93.4265 71.0235 94.5428 70.4058 95.08 69.1705C95.6187 67.9353 95.8881 66.18 95.8881 63.9034V36.3496H102.881V63.0746C102.881 66.0005 102.554 68.4308 101.902 70.3642C101.249 72.2989 100.11 73.787 98.4793 74.8269C96.8488 75.8669 94.599 76.3883 91.7312 76.3883C88.862 76.3883 86.6121 75.8669 84.9816 74.8269Z" fill="#46211F"/>
<path fill-rule="evenodd" clip-rule="evenodd" d="M109.995 73.364C108.218 71.3488 107.249 68.3411 107.086 64.3422L113.297 63.1227C113.395 65.6278 113.794 67.5367 114.495 68.8538C115.197 70.1695 116.296 70.8288 117.797 70.8288C118.904 70.8288 119.728 70.4956 120.265 69.8291C120.804 69.1627 121.073 68.2606 121.073 67.1216C121.073 65.5617 120.722 64.2445 120.022 63.1716C119.319 62.0986 118.22 60.8964 116.721 59.5634L111.733 55.2227C110.199 53.8568 109.051 52.452 108.284 51.0041C107.518 49.5577 107.135 47.7781 107.135 45.6652C107.135 42.5425 108.048 40.1366 109.873 38.4474C111.698 36.7568 114.226 35.9108 117.454 35.9108C120.843 35.9108 123.274 36.8789 124.741 38.8123C126.207 40.7471 127.055 43.3569 127.283 46.639L121.073 47.712C120.974 45.5991 120.689 43.9904 120.216 42.8844C119.744 41.7798 118.823 41.2268 117.454 41.2268C116.345 41.2268 115.473 41.5687 114.838 42.2509C114.201 42.9332 113.883 43.8281 113.883 44.9326C113.883 46.2009 114.144 47.2567 114.665 48.1027C115.188 48.9487 116.003 49.8752 117.111 50.8821L122.05 55.2227C123.908 56.8803 125.36 58.6039 126.403 60.3922C127.446 62.1805 127.968 64.2776 127.968 66.6835C127.968 68.5694 127.552 70.2428 126.721 71.7065C125.89 73.1701 124.723 74.3149 123.224 75.1451C121.724 75.9739 119.997 76.3876 118.04 76.3876C114.453 76.3876 111.773 75.3807 109.995 73.364Z" fill="#46211F"/>
<path fill-rule="evenodd" clip-rule="evenodd" d="M54.8092 83.7628H62.2919L67.9151 111.121L73.7342 83.7628H81.021L81.7556 123.264H76.3758L75.7896 95.8067L70.1649 123.264H65.8121L60.091 95.7105L59.5537 123.264H54.125L54.8092 83.7628Z" fill="#46211F"/>
<path fill-rule="evenodd" clip-rule="evenodd" d="M87.1348 83.7628H103.761V88.8346H94.3222V100.198H101.756V105.221H94.3222V118.339H103.86V123.264H87.1348V83.7628Z" fill="#46211F"/>
<path fill-rule="evenodd" clip-rule="evenodd" d="M38.6337 80.9533L40.7453 87.4327H47.5755L42.0488 91.4359L44.1604 97.9139L38.6337 93.9107L33.1084 97.9139L35.2186 91.4359L29.6919 87.4327H36.5236L38.6337 80.9533Z" fill="#46211F"/>
<path fill-rule="evenodd" clip-rule="evenodd" d="M118.974 80.9533L121.085 87.4327H127.916L122.389 91.4359L124.5 97.9139L118.974 93.9107L113.449 97.9139L115.559 91.4359L110.033 87.4327H116.864L118.974 80.9533Z" fill="#46211F"/>
<path fill-rule="evenodd" clip-rule="evenodd" d="M64.3335 26.7915C64.3335 27.1061 64.3047 27.3905 64.247 27.6418C64.1909 27.8917 64.0929 28.1072 63.959 28.2853C63.825 28.462 63.6435 28.6013 63.4188 28.6975C63.1912 28.7952 62.9133 28.8426 62.5834 28.8426C62.2795 28.8426 62.0188 28.7995 61.7999 28.7133C61.5809 28.6272 61.4009 28.5079 61.2597 28.3557C61.1186 28.202 61.0149 28.0225 60.9515 27.8171C60.8867 27.6102 60.855 27.389 60.855 27.1549L61.9439 26.9437C61.9569 27.2037 62.0073 27.4177 62.0937 27.5815C62.1801 27.7452 62.3501 27.8271 62.6036 27.8271C62.7519 27.8271 62.8686 27.7998 62.955 27.7424C63.0415 27.6849 63.1048 27.6102 63.1495 27.5154C63.1927 27.4221 63.2201 27.3143 63.2287 27.1922C63.2388 27.073 63.2431 26.9452 63.2431 26.8102C63.2431 26.6421 63.2345 26.5028 63.2143 26.3879C63.1941 26.273 63.1552 26.1767 63.0991 26.0949C63.0415 26.0159 62.9608 25.944 62.8556 25.8837C62.7519 25.8234 62.6151 25.7559 62.448 25.6826C62.111 25.5419 61.8416 25.3968 61.6371 25.2488C61.4311 25.1009 61.2741 24.9458 61.1675 24.7806C61.0595 24.6168 60.9889 24.443 60.9558 24.2577C60.9227 24.0725 60.9054 23.8699 60.9054 23.6487C60.9054 23.3658 60.9385 23.1072 61.0062 22.8717C61.0739 22.6375 61.1791 22.435 61.3202 22.2626C61.4614 22.0917 61.6429 21.9596 61.8604 21.8662C62.0807 21.7714 62.3414 21.724 62.6439 21.724C62.9752 21.724 63.2474 21.7757 63.4635 21.8806C63.6795 21.9854 63.8509 22.1161 63.9791 22.277C64.1073 22.4379 64.1981 22.616 64.2528 22.8099C64.3061 23.0052 64.3335 23.192 64.3335 23.3729L63.2431 23.6257C63.2431 23.3701 63.2013 23.1618 63.1149 23.0009C63.0285 22.8401 62.8571 22.7596 62.6036 22.7596C62.4711 22.7596 62.3659 22.7869 62.2896 22.8401C62.2118 22.8946 62.1499 22.9636 62.1038 23.0512C62.0577 23.1388 62.0274 23.2336 62.013 23.3342C62.0001 23.4333 61.9943 23.5338 61.9943 23.6344C61.9943 23.755 62.0001 23.8613 62.013 23.9518C62.0274 24.0423 62.0663 24.127 62.1297 24.2075C62.1931 24.2893 62.2896 24.3683 62.4178 24.4488C62.546 24.5307 62.7203 24.614 62.9421 24.7016C63.2517 24.8208 63.4981 24.9515 63.6824 25.088C63.8682 25.2259 64.0065 25.3767 64.1016 25.5404C64.1966 25.7042 64.2586 25.8895 64.2888 26.0934C64.3191 26.2988 64.3335 26.5301 64.3335 26.7915Z" fill="#46211F"/>
<path fill-rule="evenodd" clip-rule="evenodd" d="M70.7454 28.7827H69.6176L69.0616 25.7463C69.0285 25.5523 68.9953 25.357 68.9608 25.1588C68.9277 24.9606 68.8945 24.7652 68.86 24.5699H68.8196L68.6079 25.7664C68.5143 26.2691 68.4192 26.7718 68.327 27.2745C68.232 27.7773 68.1383 28.28 68.0433 28.7827H66.9241L65.9058 21.7848H67.0969C67.1502 22.2272 67.2007 22.6638 67.2482 23.0919C67.2943 23.5213 67.3404 23.9565 67.3879 24.3989C67.3951 24.4593 67.4081 24.5785 67.4297 24.7566C67.4484 24.9347 67.4686 25.1214 67.4902 25.3197C67.5089 25.5164 67.5276 25.7046 67.5449 25.8827C67.5607 26.0594 67.5737 26.1786 67.5795 26.2389H67.6198C67.6673 25.9775 67.7105 25.7175 67.7523 25.4604C67.7912 25.2019 67.8315 24.9419 67.8733 24.6805L68.3875 21.7848H69.3151L69.8178 24.6905C69.8596 24.9519 69.8999 25.2148 69.9445 25.4805C69.9878 25.7448 70.0339 26.0077 70.0799 26.2691H70.1203L70.2816 24.6805L70.5639 21.7848H71.7637L70.7454 28.7827Z" fill="#46211F"/>
<path fill-rule="evenodd" clip-rule="evenodd" d="M73.6489 28.7827V21.7848H76.7644V22.8003H74.7378V24.7106H76.5023V25.7463H74.7378V27.7672H76.7644V28.7827H73.6489Z" fill="#46211F"/>
<path fill-rule="evenodd" clip-rule="evenodd" d="M80.9489 23.618C80.9489 23.3623 80.8999 23.1627 80.802 23.0176C80.7055 22.8725 80.5183 22.8007 80.2431 22.8007H79.7793V27.7676H80.2431C80.5125 27.7676 80.6954 27.6973 80.7977 27.5551C80.8985 27.4143 80.9489 27.2089 80.9489 26.9403V23.618ZM80.4289 21.7852C80.8452 21.7852 81.1736 21.857 81.4142 22.0006C81.6561 22.1457 81.8232 22.3885 81.9168 22.7303C81.9903 22.9774 82.0292 23.3178 82.0335 23.7516C82.0364 24.1825 82.0378 24.691 82.0378 25.2741C82.0378 25.8501 82.035 26.3471 82.0278 26.7622C82.0206 27.1773 81.9773 27.5062 81.8967 27.7475C81.7699 28.1425 81.5654 28.414 81.2888 28.562C81.0109 28.7099 80.694 28.7831 80.3382 28.7831H78.6904V21.7852H80.4289Z" fill="#46211F"/>
<mask id="mask1_46_57" style="mask-type:alpha" maskUnits="userSpaceOnUse" x="0" y="1" width="157" height="157">
<path d="M0.442139 157.211H156.961V1.12756H0.442139V157.211Z" fill="white"/>
</mask>
<g mask="url(#mask1_46_57)">
<path fill-rule="evenodd" clip-rule="evenodd" d="M84.1562 28.7819H85.2452V21.7839H84.1562V28.7819Z" fill="#46211F"/>
<path fill-rule="evenodd" clip-rule="evenodd" d="M90.6384 26.7915C90.6384 27.1061 90.6096 27.3905 90.552 27.6418C90.4958 27.8917 90.3993 28.1072 90.2639 28.2853C90.13 28.462 89.9485 28.6013 89.7238 28.6975C89.4976 28.7952 89.2182 28.8426 88.8884 28.8426C88.5844 28.8426 88.3237 28.7995 88.1048 28.7133C87.8859 28.6272 87.7058 28.5079 87.5647 28.3557C87.4235 28.202 87.3198 28.0225 87.2564 27.8171C87.1916 27.6102 87.1599 27.389 87.1599 27.1549L88.2488 26.9437C88.2618 27.2037 88.3122 27.4177 88.3986 27.5815C88.485 27.7452 88.655 27.8271 88.9085 27.8271C89.0569 27.8271 89.1735 27.7998 89.26 27.7424C89.3464 27.6849 89.4112 27.6102 89.4544 27.5154C89.4976 27.4221 89.525 27.3143 89.5351 27.1922C89.5437 27.073 89.548 26.9452 89.548 26.8102C89.548 26.6421 89.5394 26.5028 89.5192 26.3879C89.4991 26.273 89.4602 26.1767 89.404 26.0949C89.3464 26.0159 89.2657 25.944 89.1606 25.8837C89.0569 25.8234 88.9215 25.7559 88.753 25.6826C88.4174 25.5419 88.1466 25.3968 87.942 25.2488C87.7361 25.1009 87.5791 24.9458 87.4725 24.7806C87.3644 24.6168 87.2939 24.443 87.2607 24.2577C87.2276 24.0725 87.2103 23.8699 87.2103 23.6487C87.2103 23.3658 87.2435 23.1072 87.3111 22.8717C87.3788 22.6375 87.484 22.435 87.6252 22.2626C87.7663 22.0917 87.9478 21.9596 88.1653 21.8662C88.3857 21.7714 88.6464 21.724 88.9488 21.724C89.2801 21.724 89.5524 21.7757 89.7684 21.8806C89.9845 21.9854 90.1559 22.1161 90.2841 22.277C90.4123 22.4379 90.5044 22.616 90.5577 22.8099C90.611 23.0052 90.6384 23.192 90.6384 23.3729L89.548 23.6257C89.548 23.3701 89.5063 23.1618 89.4198 23.0009C89.3334 22.8401 89.162 22.7596 88.9085 22.7596C88.776 22.7596 88.6709 22.7869 88.5945 22.8401C88.5167 22.8946 88.4548 22.9636 88.4087 23.0512C88.3626 23.1388 88.3324 23.2336 88.318 23.3342C88.3064 23.4333 88.2992 23.5338 88.2992 23.6344C88.2992 23.755 88.3064 23.8613 88.318 23.9518C88.3324 24.0423 88.3713 24.127 88.4346 24.2075C88.498 24.2893 88.5945 24.3683 88.7227 24.4488C88.8509 24.5307 89.0252 24.614 89.247 24.7016C89.5567 24.8208 89.803 24.9515 89.9874 25.088C90.1732 25.2259 90.3114 25.3767 90.4065 25.5404C90.5016 25.7042 90.5635 25.8895 90.5937 26.0934C90.624 26.2988 90.6384 26.5301 90.6384 26.7915Z" fill="#46211F"/>
<path fill-rule="evenodd" clip-rule="evenodd" d="M94.8731 28.7827V25.7261H93.6243V28.7827H92.5339V21.7848H93.6243V24.7106H94.8731V21.7848H95.962V28.7827H94.8731Z" fill="#46211F"/>
</g>
</svg>
